<svg width="183px" height="22px" viewBox="0 0 183 22" version="1.1" xmlns="http://www.w3.org/2000/svg" xmlns:xlink="http://www.w3.org/1999/xlink">
    <!-- Generator: Sketch 55.2 (78181) - https://sketchapp.com -->
    <title>CFW</title>
    <desc>Created with Sketch.</desc>
    <g id="Page-1" stroke="none" stroke-width="1" fill="#214497" fill-rule="evenodd">
        <g id="1--Dropdown-1-" transform="translate(-1803.000000, -192.000000)">
            <g id="Group-15-Copy" transform="translate(1756.000000, 84.000000)">
                <g id="CFW" transform="translate(47.000000, 108.000000)">
                    <path d="M93.825875,12.2967824 C93.825875,12.5826811 93.8501342,12.8445279 93.8981948,13.1068285 C94.2112758,14.297619 95.2448091,15.1557686 96.5177303,15.1557686 C98.3925543,15.1557686 99.4970343,13.6069242 99.4970343,11.3201891 C99.4970343,9.27079517 98.4882179,7.60259943 96.5900502,7.60259943 C95.3638165,7.60259943 94.235535,8.48480088 93.922454,9.77179846 C93.8739356,10.0091397 93.825875,10.2714403 93.825875,10.5096892 L93.825875,12.2967824 Z M90.8708302,9.41329067 C90.8708302,7.88895185 90.8223118,6.65005785 90.7742512,5.55365934 L93.3699852,5.55365934 L93.5141672,7.3407526 L93.5626856,7.3407526 C94.4268622,6.03015703 95.797278,5.29181251 97.5750651,5.29181251 C100.26692,5.29181251 102.501513,7.57900145 102.501513,11.2003839 C102.501513,15.3935637 99.8348322,17.4193596 97.1667783,17.4193596 C95.7016143,17.4193596 94.4753806,16.799005 93.8739356,15.8705152 L93.825875,15.8705152 L93.825875,21.8739323 L90.8708302,21.8739323 L90.8708302,9.41329067 Z M85.2239301,17.1570589 L85.2239301,5.55365934 L88.1794326,5.55365934 L88.1794326,17.1570589 L85.2239301,17.1570589 Z M86.6895517,3.88637121 C85.7045368,3.88637121 85.0550312,3.17207847 85.0550312,2.31392881 C85.0550312,1.40812938 85.728796,0.717434628 86.7138109,0.717434628 C87.7226273,0.717434628 88.3474161,1.40812938 88.3716753,2.31392881 C88.3716753,3.17207847 87.7226273,3.88637121 86.7138109,3.88637121 L86.6895517,3.88637121 Z M77.2458585,9.29484696 C77.2458585,7.72240456 77.2220571,6.57835629 77.1501949,5.55365934 L79.6974105,5.55365934 L79.8173334,7.74645635 L79.8887378,7.74645635 C80.4654658,6.12591038 81.8358816,5.29181251 83.1092605,5.29181251 C83.3976246,5.29181251 83.5656081,5.3158643 83.8068269,5.36396787 L83.8068269,8.10314891 C83.5413489,8.05549914 83.2777017,8.03235497 82.9165601,8.03235497 C81.5228006,8.03235497 80.5377857,8.913195 80.2736809,10.2473885 C80.2265357,10.5096892 80.2022765,10.8196396 80.2022765,11.1286824 L80.2022765,17.1570589 L77.2458585,17.1570589 L77.2458585,9.29484696 Z M72.776216,2.57622945 L72.776216,5.55365934 L75.5884519,5.55365934 L75.5884519,7.74645635 L72.776216,7.74645635 L72.776216,12.8445279 C72.776216,14.2735672 73.1616169,14.9883137 74.2898983,14.9883137 C74.8190235,14.9883137 75.1073875,14.9642619 75.4438122,14.86987 L75.4918729,17.0853574 C75.0602423,17.2519047 74.2660969,17.3953078 73.3529441,17.3953078 C72.2475486,17.3953078 71.3591128,17.0372538 70.8061862,16.4423124 C70.1571383,15.7747618 69.869232,14.7024151 69.869232,13.1771687 L69.869232,7.74645635 L68.2109099,7.74645635 L68.2109099,5.55365934 L69.869232,5.55365934 L69.869232,3.38627553 L72.776216,2.57622945 Z M60.7615057,9.29484696 C60.7615057,7.72240456 60.7372465,6.57835629 60.6649267,5.55365934 L63.2130577,5.55365934 L63.3329805,7.74645635 L63.404385,7.74645635 C63.981113,6.12591038 65.3510711,5.29181251 66.6249077,5.29181251 C66.9132718,5.29181251 67.0812552,5.3158643 67.3220163,5.36396787 L67.3220163,8.10314891 C67.0569961,8.05549914 66.7933489,8.03235497 66.432665,8.03235497 C65.0384478,8.03235497 64.0534329,8.913195 63.7888703,10.2473885 C63.7408097,10.5096892 63.7174659,10.8196396 63.7174659,11.1286824 L63.7174659,17.1570589 L60.7615057,17.1570589 L60.7615057,9.29484696 Z M55.3068483,11.4867364 C53.2159802,11.4626846 51.2216912,11.8906249 51.2216912,13.654574 C51.2216912,14.7981684 51.9664027,15.3218621 52.9042724,15.3218621 C54.1044161,15.3218621 54.9466221,14.5594658 55.2340707,13.7253679 C55.3068483,13.5111709 55.3068483,13.2969738 55.3068483,13.0827767 L55.3068483,11.4867364 Z M58.1904886,14.3693205 C58.1904886,15.4176154 58.2376339,16.4423124 58.3822736,17.1570589 L55.7146774,17.1570589 L55.4986333,15.8705152 L55.4267711,15.8705152 C54.7296625,16.7749532 53.5043442,17.4193596 51.9664027,17.4193596 C49.6114298,17.4193596 48.2895325,15.727112 48.2895325,13.9640706 C48.2895325,11.0578884 50.9090679,9.5571476 55.2340707,9.58029177 L55.2340707,9.38969269 C55.2340707,8.62729638 54.9228206,7.36435058 52.855754,7.36435058 C51.7022979,7.36435058 50.5003234,7.72240456 49.7075511,8.22250024 L49.1312808,6.31605565 C49.9959152,5.79190819 51.5095975,5.29181251 53.3606199,5.29181251 C57.1088946,5.29181251 58.1904886,7.65070301 58.1904886,10.1997388 L58.1904886,14.3693205 Z M44.396618,10.1280372 C44.4208772,9.05614431 43.9402705,7.29310283 41.9697829,7.29310283 C40.1434774,7.29310283 39.3745066,8.93724679 39.2541261,10.1280372 L44.396618,10.1280372 Z M39.2541261,12.1769773 C39.326446,14.2735672 40.984768,15.1798204 42.8586765,15.1798204 C44.2286345,15.1798204 45.189848,14.9642619 46.1030007,14.6552191 L46.5350891,16.6565095 C45.5262727,17.0853574 44.1325132,17.3953078 42.4503897,17.3953078 C38.6535966,17.3953078 36.4190042,15.0840671 36.4190042,11.5343861 C36.4190042,8.31689217 38.3894917,5.29181251 42.1382241,5.29181251 C45.9350172,5.29181251 47.184137,8.38904753 47.184137,10.9385371 C47.184137,11.4867364 47.136534,11.9146767 47.0880157,12.1769773 L39.2541261,12.1769773 Z M31.444038,17.1570589 L31.444038,0.217338951 L34.3999982,0.217338951 L34.3999982,17.1570589 L31.444038,17.1570589 Z M29.7623722,16.799005 C29.1375835,17.0853574 27.9118075,17.3953078 26.4457281,17.3953078 C22.7935748,17.3953078 20.4143426,15.0600153 20.4143426,11.4626846 C20.4143426,7.9847052 22.817834,5.29181251 26.9267926,5.29181251 C28.0079288,5.29181251 29.1133243,5.53006136 29.785716,5.81595997 L29.257964,8.03235497 C28.7768996,7.79319851 28.0802487,7.57900145 27.0229139,7.57900145 C24.7636046,7.57900145 23.4179058,9.2231454 23.442165,11.3437871 C23.442165,13.7253679 25.0043657,15.0840671 27.0229139,15.0840671 C28.0317303,15.0840671 28.7768996,14.86987 29.3536276,14.6316212 L29.7623722,16.799005 Z M115.527027,0.546248848 L115.36683,1.99399078 C114.794697,1.81015054 114.176793,1.74121045 113.581774,1.74121045 C111.84249,1.74121045 111.064389,2.7523318 111.064389,4.95841475 L111.064389,5.80867588 L114.428531,5.80867588 L114.428531,7.1644977 L111.064389,7.1644977 L111.064389,17.2297512 L109.34799,17.2297512 L109.34799,7.1644977 L106.876375,7.1644977 L106.876375,5.80867588 L109.34799,5.80867588 L109.34799,5.00437481 C109.34799,1.81015054 110.927077,0.339428571 113.65043,0.339428571 C114.29122,0.339428571 114.909123,0.408368664 115.527027,0.546248848 Z M125.527914,11.3238833 C125.527914,14.7249278 123.445349,17.4365714 120.081207,17.4365714 C117.037458,17.4365714 115.069321,15.5751889 115.069321,11.5766636 C115.069321,8.31349923 117.083229,5.60185561 120.493142,5.60185561 C123.262267,5.60185561 125.527914,7.14151767 125.527914,11.3238833 Z M123.742858,11.4387834 C123.742858,8.68117972 122.598592,7.02661751 120.332945,7.02661751 C118.54789,7.02661751 116.854376,8.38243932 116.854376,11.4387834 C116.854376,14.3572473 118.113069,15.9658495 120.332945,15.9658495 C122.118,15.9658495 123.742858,14.5870476 123.742858,11.4387834 Z M132.678306,5.62483564 L132.60965,7.32535791 C130.092264,6.88873733 128.902228,8.81905991 128.902228,12.656725 L128.902228,17.2297512 L127.185828,17.2297512 L127.185828,5.80867588 L128.879342,5.80867588 C128.879342,6.5670169 128.787801,7.6930384 128.627604,8.68117972 L128.650489,8.70415975 C129.108195,7.02661751 130.298232,5.34907527 132.678306,5.62483564 Z M154.331567,5.80867588 L150.624145,17.2297512 L148.633121,17.2297512 L146.138621,9.85316129 C145.886883,9.14078034 145.7038,8.42839939 145.497832,7.67005837 L145.474947,7.67005837 C145.246093,8.65819969 144.948584,9.57740092 144.651075,10.5425622 L142.568511,17.2297512 L140.577487,17.2297512 L137.053147,5.80867588 L138.975515,5.80867588 L140.920767,12.610765 C141.218276,13.6218863 141.515786,14.6330077 141.698868,15.4143287 L141.721754,15.4143287 C141.950607,14.4951275 142.202345,13.5299662 142.499855,12.610765 L144.67396,5.80867588 L146.619213,5.80867588 L148.816204,12.5877849 C149.27391,14.0125469 149.456993,14.6789677 149.640076,15.4373088 L149.685846,15.4373088 C149.891814,14.5410876 150.120667,13.7827465 150.463947,12.633745 L152.500741,5.80867588 L154.331567,5.80867588 Z M165.344494,11.3238833 C165.344494,14.7249278 163.261929,17.4365714 159.897787,17.4365714 C156.854038,17.4365714 154.885901,15.5751889 154.885901,11.5766636 C154.885901,8.31349923 156.899809,5.60185561 160.309722,5.60185561 C163.078847,5.60185561 165.344494,7.14151767 165.344494,11.3238833 Z M163.559438,11.4387834 C163.559438,8.68117972 162.415172,7.02661751 160.149525,7.02661751 C158.36447,7.02661751 156.670956,8.38243932 156.670956,11.4387834 C156.670956,14.3572473 157.929649,15.9658495 160.149525,15.9658495 C161.93458,15.9658495 163.559438,14.5870476 163.559438,11.4387834 Z M172.494886,5.62483564 L172.42623,7.32535791 C169.908844,6.88873733 168.718808,8.81905991 168.718808,12.656725 L168.718808,17.2297512 L167.002408,17.2297512 L167.002408,5.80867588 L168.695922,5.80867588 C168.695922,6.5670169 168.604381,7.6930384 168.444184,8.68117972 L168.467069,8.70415975 C168.924775,7.02661751 170.114812,5.34907527 172.494886,5.62483564 Z M182.752597,17.2297512 L180.53272,17.2297512 L176.047197,11.2319631 L176.047197,17.2297512 L174.330798,17.2297512 L174.330798,0.454328725 L176.047197,0.454328725 L176.047197,10.9332227 L180.326752,5.80867588 L182.409317,5.80867588 L177.878023,11.0021628 L182.752597,17.2297512 Z" id="Combined-Shape" fill="#214497"/>
                    <path d="M2.51006002,0 L14.9879479,0 C16.3742158,1.89435933e-16 17.498008,1.12379215 17.498008,2.51006002 L17.498008,15.08994 C17.498008,16.4762078 16.3742158,17.6 14.9879479,17.6 L2.51006002,17.6 C1.12379215,17.6 -9.88621249e-14,16.4762078 -9.9475983e-14,15.08994 L-9.9475983e-14,2.51006002 C-9.92016626e-14,1.12379215 1.12379215,2.54653277e-16 2.51006002,0 Z M2.49971542,9.21510808 L5.90807275,12.809277 L14.7386292,7.18283701 L13.1900843,4.52571429 L6.21796509,10.4657364 L4.04871871,6.71338887 L2.49971542,9.21510808 Z" id="Combined-Shape" fill="#F26822"/>
                </g>
            </g>
        </g>
    </g>
</svg>