<?xml version="1.0" encoding="UTF-8"?>
<svg width="44px" height="44px" viewBox="0 0 44 44" version="1.1" xmlns="http://www.w3.org/2000/svg" xmlns:xlink="http://www.w3.org/1999/xlink">
  <!-- Generator: Sketch 53.2 (72643) - https://sketchapp.com -->
  <title>expressway</title>
  <desc>Created with Sketch.</desc>
  <defs>
    <rect id="path-1" x="0" y="0" width="44" height="44"></rect>
    <path d="M2.63636,4 C1.582002,4 0.727273,3.1452709 0.727273,2.090909 C0.727273,1.036547 1.582002,0.181818 2.63636,0.181818 C3.69073,0.181818 4.54545,1.036547 4.54545,2.090909 C4.54545,3.1452709 3.69073,4 2.63636,4 Z" id="path-3"></path>
    <path d="M2,4 C0.94564,4 0.09091,3.1452709 0.09091,2.090909 C0.09091,1.036547 0.94564,0.181818 2,0.181818 C3.05436,0.181818 3.90909,1.036547 3.90909,2.090909 C3.90909,3.1452709 3.05436,4 2,4 Z" id="path-5"></path>
    <path d="M2.36364,4 C1.30927,4 0.45455,3.1452709 0.45455,2.090909 C0.45455,1.036547 1.30927,0.181818 2.36364,0.181818 C3.418,0.181818 4.27273,1.036547 4.27273,2.090909 C4.27273,3.1452709 3.418,4 2.36364,4 Z" id="path-7"></path>
    <path d="M2.63636,4.636364 C1.582002,4.636364 0.727273,3.781635 0.727273,2.727273 C0.727273,1.672911 1.582002,0.818182 2.63636,0.818182 C3.69073,0.818182 4.54545,1.672911 4.54545,2.727273 C4.54545,3.781635 3.69073,4.636364 2.63636,4.636364 Z" id="path-9"></path>
    <path d="M2,4.636364 C0.94564,4.636364 0.09091,3.781635 0.09091,2.727273 C0.09091,1.672911 0.94564,0.818182 2,0.818182 C3.05436,0.818182 3.90909,1.672911 3.90909,2.727273 C3.90909,3.781635 3.05436,4.636364 2,4.636364 Z" id="path-11"></path>
    <path d="M2.36364,4.636364 C1.30927,4.636364 0.45455,3.781635 0.45455,2.727273 C0.45455,1.672911 1.30927,0.818182 2.36364,0.818182 C3.418,0.818182 4.27273,1.672911 4.27273,2.727273 C4.27273,3.781635 3.418,4.636364 2.36364,4.636364 Z" id="path-13"></path>
    <path d="M2.63636,4.272727 C1.582002,4.272727 0.727273,3.417998 0.727273,2.36364 C0.727273,1.30927 1.582002,0.45455 2.63636,0.45455 C3.69073,0.45455 4.54545,1.30927 4.54545,2.36364 C4.54545,3.417998 3.69073,4.272727 2.63636,4.272727 Z" id="path-15"></path>
    <path d="M2,4.272727 C0.94564,4.272727 0.09091,3.417998 0.09091,2.36364 C0.09091,1.30927 0.94564,0.45455 2,0.45455 C3.05436,0.45455 3.90909,1.30927 3.90909,2.36364 C3.90909,3.417998 3.05436,4.272727 2,4.272727 Z" id="path-17"></path>
    <path d="M2.36364,4.272727 C1.30927,4.272727 0.45455,3.417998 0.45455,2.36364 C0.45455,1.30927 1.30927,0.45455 2.36364,0.45455 C3.418,0.45455 4.27273,1.30927 4.27273,2.36364 C4.27273,3.417998 3.418,4.272727 2.36364,4.272727 Z" id="path-19"></path>
    <path d="M2.63636,3.90909 C1.582002,3.90909 0.727273,3.05436 0.727273,2 C0.727273,0.94564 1.582002,0.09091 2.63636,0.09091 C3.69073,0.09091 4.54545,0.94564 4.54545,2 C4.54545,3.05436 3.69073,3.90909 2.63636,3.90909 Z" id="path-21"></path>
    <path d="M2,3.90909 C0.94564,3.90909 0.09091,3.05436 0.09091,2 C0.09091,0.94564 0.94564,0.09091 2,0.09091 C3.05436,0.09091 3.90909,0.94564 3.90909,2 C3.90909,3.05436 3.05436,3.90909 2,3.90909 Z" id="path-23"></path>
    <path d="M1.909091,3.90909 C0.8547291,3.90909 0,3.05436 0,2 C0,0.94564 0.8547291,0.09091 1.909091,0.09091 C2.963453,0.09091 3.818182,0.94564 3.818182,2 C3.818182,3.05436 2.963453,3.90909 1.909091,3.90909 Z" id="path-25"></path>
    <path d="M2.272727,3.90909 C1.218365,3.90909 0.363636,3.05436 0.363636,2 C0.363636,0.94564 1.218365,0.09091 2.272727,0.09091 C3.327089,0.09091 4.181818,0.94564 4.181818,2 C4.181818,3.05436 3.327089,3.90909 2.272727,3.90909 Z" id="path-27"></path>
    <path d="M2.36364,3.90909 C1.30927,3.90909 0.45455,3.05436 0.45455,2 C0.45455,0.94564 1.30927,0.09091 2.36364,0.09091 C3.418,0.09091 4.27273,0.94564 4.27273,2 C4.27273,3.05436 3.418,3.90909 2.36364,3.90909 Z" id="path-29"></path>
    <path d="M2.72727,3.90909 C1.67291,3.90909 0.81818,3.05436 0.81818,2 C0.81818,0.94564 1.67291,0.09091 2.72727,0.09091 C3.78163,0.09091 4.63636,0.94564 4.63636,2 C4.63636,3.05436 3.78163,3.90909 2.72727,3.90909 Z" id="path-31"></path>
    <path d="M2.09091,3.90909 C1.03655,3.90909 0.18182,3.05436 0.18182,2 C0.18182,0.94564 1.03655,0.09091 2.09091,0.09091 C3.14527,0.09091 4,0.94564 4,2 C4,3.05436 3.14527,3.90909 2.09091,3.90909 Z" id="path-33"></path>
    <path d="M2.63636,4.54545 C1.582002,4.54545 0.727273,3.69073 0.727273,2.63636 C0.727273,1.582 1.582002,0.72727 2.63636,0.72727 C3.69073,0.72727 4.54545,1.582 4.54545,2.63636 C4.54545,3.69073 3.69073,4.54545 2.63636,4.54545 Z" id="path-35"></path>
    <path d="M2.272727,4.54545 C1.218365,4.54545 0.363636,3.69073 0.363636,2.63636 C0.363636,1.582 1.218365,0.72727 2.272727,0.72727 C3.327089,0.72727 4.181818,1.582 4.181818,2.63636 C4.181818,3.69073 3.327089,4.54545 2.272727,4.54545 Z" id="path-37"></path>
    <path d="M2,4.54545 C0.94564,4.54545 0.09091,3.69073 0.09091,2.63636 C0.09091,1.582 0.94564,0.72727 2,0.72727 C3.05436,0.72727 3.90909,1.582 3.90909,2.63636 C3.90909,3.69073 3.05436,4.54545 2,4.54545 Z" id="path-39"></path>
    <path d="M2.36364,4.54545 C1.30927,4.54545 0.45455,3.69073 0.45455,2.63636 C0.45455,1.582 1.30927,0.72727 2.36364,0.72727 C3.418,0.72727 4.27273,1.582 4.27273,2.63636 C4.27273,3.69073 3.418,4.54545 2.36364,4.54545 Z" id="path-41"></path>
    <path d="M2.72727,4.54545 C1.67291,4.54545 0.81818,3.69073 0.81818,2.63636 C0.81818,1.582 1.67291,0.72727 2.72727,0.72727 C3.78163,0.72727 4.63636,1.582 4.63636,2.63636 C4.63636,3.69073 3.78163,4.54545 2.72727,4.54545 Z" id="path-43"></path>
    <path d="M2.63636,4.18182 C1.582002,4.18182 0.727273,3.32709 0.727273,2.27273 C0.727273,1.21837 1.582002,0.36364 2.63636,0.36364 C3.69073,0.36364 4.54545,1.21837 4.54545,2.27273 C4.54545,3.32709 3.69073,4.18182 2.63636,4.18182 Z" id="path-45"></path>
    <path d="M2,4.18182 C0.94564,4.18182 0.09091,3.32709 0.09091,2.27273 C0.09091,1.21837 0.94564,0.36364 2,0.36364 C3.05436,0.36364 3.90909,1.21837 3.90909,2.27273 C3.90909,3.32709 3.05436,4.18182 2,4.18182 Z" id="path-47"></path>
    <path d="M2.36364,4.18182 C1.30927,4.18182 0.45455,3.32709 0.45455,2.27273 C0.45455,1.21837 1.30927,0.36364 2.36364,0.36364 C3.418,0.36364 4.27273,1.21837 4.27273,2.27273 C4.27273,3.32709 3.418,4.18182 2.36364,4.18182 Z" id="path-49"></path>
    <path d="M2,3.81818 C0.94564,3.81818 0.09091,2.96345 0.09091,1.90909 C0.09091,0.85473 0.94564,0 2,0 C3.05436,0 3.90909,0.85473 3.90909,1.90909 C3.90909,2.96345 3.05436,3.81818 2,3.81818 Z" id="path-51"></path>
  </defs>
  <g id="expressway" stroke="none" stroke-width="1" fill="none" fill-rule="evenodd">
    <g id="Group">
      <mask id="mask-2" fill="white">
        <use xlink:href="#path-1"></use>
      </mask>
      <g id="Mask"></g>
      <g mask="url(#mask-2)">
        <g transform="translate(7.000000, 7.000000)">
          <g id="Group-3" transform="translate(8.000000, 26.000000)">
            <mask id="mask-4" fill="white">
              <use xlink:href="#path-3"></use>
            </mask>
            <g id="Clip-2"></g>
            <path d="M2.636364,4 C3.690726,4 4.545455,3.145271 4.545455,2.090909 C4.545455,1.0365471 3.690726,0.181818 2.636364,0.181818 C1.5820021,0.181818 0.727273,1.0365471 0.727273,2.090909 C0.727273,3.145271 1.5820021,4 2.636364,4 Z" id="Stroke-1" stroke="#212329" stroke-width="1.2" mask="url(#mask-4)"></path>
          </g>
          <g id="Group-6" transform="translate(13.000000, 26.000000)">
            <mask id="mask-6" fill="white">
              <use xlink:href="#path-5"></use>
            </mask>
            <g id="Clip-5"></g>
            <path d="M2.000001,4 C3.054363,4 3.909092,3.145271 3.909092,2.090909 C3.909092,1.0365471 3.054363,0.181818 2.000001,0.181818 C0.9456391,0.181818 0.09091,1.0365471 0.09091,2.090909 C0.09091,3.145271 0.9456391,4 2.000001,4 Z" id="Stroke-4" stroke="#212329" stroke-width="1.2" mask="url(#mask-6)"></path>
          </g>
          <g id="Group-9" transform="translate(17.000000, 26.000000)">
            <mask id="mask-8" fill="white">
              <use xlink:href="#path-7"></use>
            </mask>
            <g id="Clip-8"></g>
            <path d="M2.363641,4 C3.418003,4 4.272732,3.145271 4.272732,2.090909 C4.272732,1.0365471 3.418003,0.181818 2.363641,0.181818 C1.3092791,0.181818 0.45455,1.0365471 0.45455,2.090909 C0.45455,3.145271 1.3092791,4 2.363641,4 Z" id="Stroke-7" stroke="#212329" stroke-width="1.2" mask="url(#mask-8)"></path>
          </g>
          <g id="Group-12" transform="translate(8.000000, 21.000000)">
            <mask id="mask-10" fill="white">
              <use xlink:href="#path-9"></use>
            </mask>
            <g id="Clip-11"></g>
            <path d="M2.636364,4.636364 C3.690726,4.636364 4.545455,3.781635 4.545455,2.727273 C4.545455,1.6729111 3.690726,0.818182 2.636364,0.818182 C1.5820021,0.818182 0.727273,1.6729111 0.727273,2.727273 C0.727273,3.781635 1.5820021,4.636364 2.636364,4.636364 Z" id="Stroke-10" stroke="#212329" stroke-width="1.2" mask="url(#mask-10)"></path>
          </g>
          <g id="Group-15" transform="translate(13.000000, 21.000000)">
            <mask id="mask-12" fill="white">
              <use xlink:href="#path-11"></use>
            </mask>
            <g id="Clip-14"></g>
            <path d="M2.000001,4.636364 C3.054363,4.636364 3.909092,3.781635 3.909092,2.727273 C3.909092,1.6729111 3.054363,0.818182 2.000001,0.818182 C0.9456391,0.818182 0.09091,1.6729111 0.09091,2.727273 C0.09091,3.781635 0.9456391,4.636364 2.000001,4.636364 Z" id="Stroke-13" stroke="#212329" stroke-width="1.2" mask="url(#mask-12)"></path>
          </g>
          <g id="Group-18" transform="translate(17.000000, 21.000000)">
            <mask id="mask-14" fill="white">
              <use xlink:href="#path-13"></use>
            </mask>
            <g id="Clip-17"></g>
            <path d="M2.363641,4.636364 C3.418003,4.636364 4.272732,3.781635 4.272732,2.727273 C4.272732,1.6729111 3.418003,0.818182 2.363641,0.818182 C1.3092791,0.818182 0.45455,1.6729111 0.45455,2.727273 C0.45455,3.781635 1.3092791,4.636364 2.363641,4.636364 Z" id="Stroke-16" stroke="#212329" stroke-width="1.2" mask="url(#mask-14)"></path>
          </g>
          <g id="Group-21" transform="translate(8.000000, 17.000000)">
            <mask id="mask-16" fill="white">
              <use xlink:href="#path-15"></use>
            </mask>
            <g id="Clip-20"></g>
            <path d="M2.636364,4.272732 C3.690726,4.272732 4.545455,3.418003 4.545455,2.363641 C4.545455,1.3092791 3.690726,0.45455 2.636364,0.45455 C1.5820021,0.45455 0.727273,1.3092791 0.727273,2.363641 C0.727273,3.418003 1.5820021,4.272732 2.636364,4.272732 Z" id="Stroke-19" stroke="#212329" stroke-width="1.2" mask="url(#mask-16)"></path>
          </g>
          <g id="Group-24" transform="translate(13.000000, 17.000000)">
            <mask id="mask-18" fill="white">
              <use xlink:href="#path-17"></use>
            </mask>
            <g id="Clip-23"></g>
            <path d="M2.000001,4.272732 C3.054363,4.272732 3.909092,3.418003 3.909092,2.363641 C3.909092,1.3092791 3.054363,0.45455 2.000001,0.45455 C0.9456391,0.45455 0.09091,1.3092791 0.09091,2.363641 C0.09091,3.418003 0.9456391,4.272732 2.000001,4.272732 Z" id="Stroke-22" stroke="#212329" stroke-width="1.2" mask="url(#mask-18)"></path>
          </g>
          <g id="Group-27" transform="translate(17.000000, 17.000000)">
            <mask id="mask-20" fill="white">
              <use xlink:href="#path-19"></use>
            </mask>
            <g id="Clip-26"></g>
            <path d="M2.363641,4.272732 C3.418003,4.272732 4.272732,3.418003 4.272732,2.363641 C4.272732,1.3092791 3.418003,0.45455 2.363641,0.45455 C1.3092791,0.45455 0.45455,1.3092791 0.45455,2.363641 C0.45455,3.418003 1.3092791,4.272732 2.363641,4.272732 Z" id="Stroke-25" stroke="#212329" stroke-width="1.2" mask="url(#mask-20)"></path>
          </g>
          <g id="Group-30" transform="translate(8.000000, 13.000000)">
            <mask id="mask-22" fill="white">
              <use xlink:href="#path-21"></use>
            </mask>
            <g id="Clip-29"></g>
            <path d="M2.636364,3.909092 C3.690726,3.909092 4.545455,3.054363 4.545455,2.000001 C4.545455,0.9456391 3.690726,0.09091 2.636364,0.09091 C1.5820021,0.09091 0.727273,0.9456391 0.727273,2.000001 C0.727273,3.054363 1.5820021,3.909092 2.636364,3.909092 Z" id="Stroke-28" stroke="#212329" stroke-width="1.2" mask="url(#mask-22)"></path>
          </g>
          <g id="Group-33" transform="translate(13.000000, 13.000000)">
            <mask id="mask-24" fill="white">
              <use xlink:href="#path-23"></use>
            </mask>
            <g id="Clip-32"></g>
            <path d="M2.000001,3.909092 C3.054363,3.909092 3.909092,3.054363 3.909092,2.000001 C3.909092,0.9456391 3.054363,0.09091 2.000001,0.09091 C0.9456391,0.09091 0.09091,0.9456391 0.09091,2.000001 C0.09091,3.054363 0.9456391,3.909092 2.000001,3.909092 Z" id="Stroke-31" stroke="#212329" stroke-width="1.2" mask="url(#mask-24)"></path>
          </g>
          <g id="Group-36" transform="translate(0.000000, 13.000000)">
            <mask id="mask-26" fill="white">
              <use xlink:href="#path-25"></use>
            </mask>
            <g id="Clip-35"></g>
            <path d="M1.909091,3.909092 C2.963453,3.909092 3.818182,3.054363 3.818182,2.000001 C3.818182,0.9456391 2.963453,0.09091 1.909091,0.09091 C0.8547291,0.09091 0,0.9456391 0,2.000001 C0,3.054363 0.8547291,3.909092 1.909091,3.909092 Z" id="Stroke-34" stroke="#212329" stroke-width="1.2" mask="url(#mask-26)"></path>
          </g>
          <g id="Group-39" transform="translate(4.000000, 13.000000)">
            <mask id="mask-28" fill="white">
              <use xlink:href="#path-27"></use>
            </mask>
            <g id="Clip-38"></g>
            <path d="M2.272727,3.909092 C3.327089,3.909092 4.181818,3.054363 4.181818,2.000001 C4.181818,0.9456391 3.327089,0.09091 2.272727,0.09091 C1.2183651,0.09091 0.363636,0.9456391 0.363636,2.000001 C0.363636,3.054363 1.2183651,3.909092 2.272727,3.909092 Z" id="Stroke-37" stroke="#212329" stroke-width="1.2" mask="url(#mask-28)"></path>
          </g>
          <g id="Group-42" transform="translate(17.000000, 13.000000)">
            <mask id="mask-30" fill="white">
              <use xlink:href="#path-29"></use>
            </mask>
            <g id="Clip-41"></g>
            <path d="M2.363641,3.909092 C3.418003,3.909092 4.272732,3.054363 4.272732,2.000001 C4.272732,0.9456391 3.418003,0.09091 2.363641,0.09091 C1.3092791,0.09091 0.45455,0.9456391 0.45455,2.000001 C0.45455,3.054363 1.3092791,3.909092 2.363641,3.909092 Z" id="Stroke-40" stroke="#212329" stroke-width="1.2" mask="url(#mask-30)"></path>
          </g>
          <g id="Group-45" transform="translate(21.000000, 13.000000)">
            <mask id="mask-32" fill="white">
              <use xlink:href="#path-31"></use>
            </mask>
            <g id="Clip-44"></g>
            <path d="M2.727271,3.909092 C3.781633,3.909092 4.636362,3.054363 4.636362,2.000001 C4.636362,0.9456391 3.781633,0.09091 2.727271,0.09091 C1.6729091,0.09091 0.81818,0.9456391 0.81818,2.000001 C0.81818,3.054363 1.6729091,3.909092 2.727271,3.909092 Z" id="Stroke-43" stroke="#212329" stroke-width="1.2" mask="url(#mask-32)"></path>
          </g>
          <g id="Group-48" transform="translate(26.000000, 13.000000)">
            <mask id="mask-34" fill="white">
              <use xlink:href="#path-33"></use>
            </mask>
            <g id="Clip-47"></g>
            <path d="M2.090911,3.909092 C3.145273,3.909092 4.000002,3.054363 4.000002,2.000001 C4.000002,0.9456391 3.145273,0.09091 2.090911,0.09091 C1.0365491,0.09091 0.18182,0.9456391 0.18182,2.000001 C0.18182,3.054363 1.0365491,3.909092 2.090911,3.909092 Z" id="Stroke-46" stroke="#212329" stroke-width="1.2" mask="url(#mask-34)"></path>
          </g>
          <g id="Group-51" transform="translate(8.000000, 8.000000)">
            <mask id="mask-36" fill="white">
              <use xlink:href="#path-35"></use>
            </mask>
            <g id="Clip-50"></g>
            <path d="M2.636364,4.545452 C3.690726,4.545452 4.545455,3.690723 4.545455,2.636361 C4.545455,1.5819991 3.690726,0.72727 2.636364,0.72727 C1.5820021,0.72727 0.727273,1.5819991 0.727273,2.636361 C0.727273,3.690723 1.5820021,4.545452 2.636364,4.545452 Z" id="Stroke-49" stroke="#212329" stroke-width="1.2" mask="url(#mask-36)"></path>
          </g>
          <g id="Group-54" transform="translate(4.000000, 8.000000)">
            <mask id="mask-38" fill="white">
              <use xlink:href="#path-37"></use>
            </mask>
            <g id="Clip-53"></g>
            <path d="M2.272727,4.545452 C3.327089,4.545452 4.181818,3.690723 4.181818,2.636361 C4.181818,1.5819991 3.327089,0.72727 2.272727,0.72727 C1.2183651,0.72727 0.363636,1.5819991 0.363636,2.636361 C0.363636,3.690723 1.2183651,4.545452 2.272727,4.545452 Z" id="Stroke-52" stroke="#212329" stroke-width="1.2" mask="url(#mask-38)"></path>
          </g>
          <g id="Group-57" transform="translate(13.000000, 8.000000)">
            <mask id="mask-40" fill="white">
              <use xlink:href="#path-39"></use>
            </mask>
            <g id="Clip-56"></g>
            <path d="M2.000001,4.545452 C3.054363,4.545452 3.909092,3.690723 3.909092,2.636361 C3.909092,1.5819991 3.054363,0.72727 2.000001,0.72727 C0.9456391,0.72727 0.09091,1.5819991 0.09091,2.636361 C0.09091,3.690723 0.9456391,4.545452 2.000001,4.545452 Z" id="Stroke-55" stroke="#212329" stroke-width="1.2" mask="url(#mask-40)"></path>
          </g>
          <g id="Group-60" transform="translate(17.000000, 8.000000)">
            <mask id="mask-42" fill="white">
              <use xlink:href="#path-41"></use>
            </mask>
            <g id="Clip-59"></g>
            <path d="M2.363641,4.545452 C3.418003,4.545452 4.272732,3.690723 4.272732,2.636361 C4.272732,1.5819991 3.418003,0.72727 2.363641,0.72727 C1.3092791,0.72727 0.45455,1.5819991 0.45455,2.636361 C0.45455,3.690723 1.3092791,4.545452 2.363641,4.545452 Z" id="Stroke-58" stroke="#212329" stroke-width="1.2" mask="url(#mask-42)"></path>
          </g>
          <g id="Group-63" transform="translate(21.000000, 8.000000)">
            <mask id="mask-44" fill="white">
              <use xlink:href="#path-43"></use>
            </mask>
            <g id="Clip-62"></g>
            <path d="M2.727271,4.545452 C3.781633,4.545452 4.636362,3.690723 4.636362,2.636361 C4.636362,1.5819991 3.781633,0.72727 2.727271,0.72727 C1.6729091,0.72727 0.81818,1.5819991 0.81818,2.636361 C0.81818,3.690723 1.6729091,4.545452 2.727271,4.545452 Z" id="Stroke-61" stroke="#212329" stroke-width="1.2" mask="url(#mask-44)"></path>
          </g>
          <g id="Group-66" transform="translate(8.000000, 4.000000)">
            <mask id="mask-46" fill="white">
              <use xlink:href="#path-45"></use>
            </mask>
            <g id="Clip-65"></g>
            <path d="M2.636364,4.181822 C3.690726,4.181822 4.545455,3.327093 4.545455,2.272731 C4.545455,1.2183691 3.690726,0.36364 2.636364,0.36364 C1.5820021,0.36364 0.727273,1.2183691 0.727273,2.272731 C0.727273,3.327093 1.5820021,4.181822 2.636364,4.181822 Z" id="Stroke-64" stroke="#212329" stroke-width="1.2" mask="url(#mask-46)"></path>
          </g>
          <g id="Group-69" transform="translate(13.000000, 4.000000)">
            <mask id="mask-48" fill="white">
              <use xlink:href="#path-47"></use>
            </mask>
            <g id="Clip-68"></g>
            <path d="M2.000001,4.181822 C3.054363,4.181822 3.909092,3.327093 3.909092,2.272731 C3.909092,1.2183691 3.054363,0.36364 2.000001,0.36364 C0.9456391,0.36364 0.09091,1.2183691 0.09091,2.272731 C0.09091,3.327093 0.9456391,4.181822 2.000001,4.181822 Z" id="Stroke-67" stroke="#212329" stroke-width="1.2" mask="url(#mask-48)"></path>
          </g>
          <g id="Group-72" transform="translate(17.000000, 4.000000)">
            <mask id="mask-50" fill="white">
              <use xlink:href="#path-49"></use>
            </mask>
            <g id="Clip-71"></g>
            <path d="M2.363641,4.181822 C3.418003,4.181822 4.272732,3.327093 4.272732,2.272731 C4.272732,1.2183691 3.418003,0.36364 2.363641,0.36364 C1.3092791,0.36364 0.45455,1.2183691 0.45455,2.272731 C0.45455,3.327093 1.3092791,4.181822 2.363641,4.181822 Z" id="Stroke-70" stroke="#212329" stroke-width="1.2" mask="url(#mask-50)"></path>
          </g>
          <g id="Group-75" transform="translate(13.000000, 0.000000)">
            <mask id="mask-52" fill="white">
              <use xlink:href="#path-51"></use>
            </mask>
            <g id="Clip-74"></g>
            <path d="M2.000001,3.818182 C3.054363,3.818182 3.909092,2.963453 3.909092,1.909091 C3.909092,0.8547291 3.054363,0 2.000001,0 C0.9456391,0 0.09091,0.8547291 0.09091,1.909091 C0.09091,2.963453 0.9456391,3.818182 2.000001,3.818182 Z" id="Stroke-73" stroke="#212329" stroke-width="1.2" mask="url(#mask-52)"></path>
          </g>
        </g>
      </g>
    </g>
  </g>
</svg>