<svg viewBox="0 0 24 24" height="20" width="20" class="c-neutral-400 mx-1">
  <title></title>
  <g fill="none" fill-rule="evenodd">
    <rect width="24" height="24" fill="#FFF" opacity="0"></rect>
    <path fill="currentColor" d="M19.9705627,3 L21.0289594,4.06162079 L20.0710274,5.01561146 L4.06066017,21.0312229 L3.00509436,19.9756571 L7.99909436,14.978 L8,11 C6.8954305,11 6,10.1045695 6,9 L6,4 L7.25021022,4 L7.25021022,7.5 C7.25021022,7.77614237 7.47406784,8 7.75021022,8 C8.02635259,8 8.25021022,7.77614237 8.25021022,7.5 L8.25021022,4 L9.74853187,4 L9.74853187,7.5 C9.74853187,7.77614237 9.9723895,8 10.2485319,8 C10.5246742,8 10.7485319,7.77614237 10.7485319,7.5 L10.7485319,4 L12,4 L12,9 C12,10.1045695 11.1045695,11 10,11 L9.99909436,12.977 L13.385074,9.58856169 C13.8626875,5.8628539 14.7350721,4 16.0022278,4 L17,4 L16.9990944,5.973 L19.9705627,3 Z M16.9990944,10.207 L17,20 L15,20 L15,15 L13.9943427,14.9990816 L13.9943427,14.9990816 C13.5110008,14.9783533 13.1225402,14.6178466 13.0495236,14.1578636 L16.9990944,10.207 Z M9.99909436,17.208 L10,20 L8,20 L7.99909436,19.208 L9.99909436,17.208 Z"></path>
  </g>
</svg>