<?xml version="1.0" encoding="UTF-8"?>
<svg width="44px" height="44px" viewBox="0 0 44 44" version="1.1" xmlns="http://www.w3.org/2000/svg" xmlns:xlink="http://www.w3.org/1999/xlink">
  <!-- Generator: Sketch 53.2 (72643) - https://sketchapp.com -->
  <title>profile</title>
  <desc>Created with Sketch.</desc>
  <defs>
    <rect id="path-1" x="0" y="0" width="44" height="44"></rect>
    <path d="M15.09633,1.52302 C15.56405,1.96275 15.90754,2.99143 15.91057,3.69926 C15.91241,4.10268 15.93255,4.50649 15.86846,4.98624 C15.85345,5.0981 15.81871,5.9362 15.76672,6.45677 C15.74172,6.70646 15.78791,6.7755 15.98966,6.84601 C16.21918,6.92645 16.29986,7.16447 16.223,7.49699 C16.05955,8.20535 15.85214,9.90038 15.58642,10.35694 C15.51654,10.47701 15.38494,10.56832 15.27662,10.59178 C15.08896,10.66428 14.96893,10.65646 14.89681,10.94815 C14.64939,12.00281 14.44067,12.93329 14.21838,13.62058 C14.07151,13.86085 13.96254,13.93851 13.79185,14.04851 C13.67183,14.12604 13.45244,14.33013 13.4352,14.47883 C13.39137,14.86038 13.51074,15.32383 13.90714,15.50142 C16.40725,16.37385 17.47376,17.59655 19.42968,18.02369 C20.76153,18.314589 21,21.759935 21,23 L0,23 C0,21.759935 0.238469,18.314589 1.570318,18.02369 C3.52624,17.59655 4.592488,16.37385 7.092731,15.50142 C7.489259,15.32383 7.608494,14.86038 7.564537,14.47883 C7.54756,14.33013 7.328042,14.12604 7.207886,14.04851 C7.037325,13.93851 6.928356,13.86085 6.781353,13.62058 C6.559334,12.93329 6.350344,12.00281 6.103057,10.94815 C6.030937,10.65646 5.910913,10.66428 5.723244,10.59178 C5.614932,10.56832 5.483327,10.47701 5.413576,10.35694 C5.147864,9.90038 4.940322,8.20535 4.776868,7.49699 C4.70001,7.16447 4.780684,6.92645 5.010073,6.84601 C5.211956,6.7755 5.258149,6.70646 5.233144,6.45677 C5.18116,5.9362 5.146416,5.0981 5.131545,4.98624 C5.067321,4.50649 5.050213,4.10069 5.089299,3.69926 C5.155234,3.02311 5.475562,2.31183 5.965398,1.92299 C6.939542,1.14929 8.342195,0.55636 9.62574,0.24598 C10.11519,0.1275 10.86942,0.0171 11.5768,0.00279 C12.17639,-0.00914 13.31267,-0.0147 13.51456,0.69697 C13.66314,1.22086 14.72612,1.17487 15.09633,1.52302 Z" id="path-3"></path>
    <path d="M15.09633,1.52302 C15.56405,1.96275 15.90754,2.99143 15.91057,3.69926 C15.91241,4.10268 15.93255,4.50649 15.86846,4.98624 C15.85345,5.0981 15.81871,5.9362 15.76672,6.45677 C15.74172,6.70646 15.78791,6.7755 15.98966,6.84601 C16.21918,6.92645 16.29986,7.16447 16.223,7.49699 C16.05955,8.20535 15.85214,9.90038 15.58642,10.35694 C15.51654,10.47701 15.38494,10.56832 15.27662,10.59178 C15.08896,10.66428 14.96893,10.65646 14.89681,10.94815 C14.64939,12.00281 14.44067,12.93329 14.21838,13.62058 C14.07151,13.86085 13.96254,13.93851 13.79185,14.04851 C13.67183,14.12604 13.45244,14.33013 13.4352,14.47883 C13.39137,14.86038 13.51074,15.32383 13.90714,15.50142 C16.40725,16.37385 17.47376,17.59655 19.42968,18.02369 C20.76153,18.31459 21,21.759935 21,23 L0,23 C0,21.759935 0.23847,18.31459 1.57032,18.02369 C3.52624,17.59655 4.59249,16.37385 7.09273,15.50142 C7.48926,15.32383 7.60849,14.86038 7.56454,14.47883 C7.54756,14.33013 7.32804,14.12604 7.20789,14.04851 C7.03733,13.93851 6.92836,13.86085 6.78135,13.62058 C6.55933,12.93329 6.35034,12.00281 6.10306,10.94815 C6.03094,10.65646 5.91091,10.66428 5.72324,10.59178 C5.61493,10.56832 5.48333,10.47701 5.41358,10.35694 C5.14786,9.90038 4.94032,8.20535 4.77687,7.49699 C4.70001,7.16447 4.78068,6.92645 5.01007,6.84601 C5.21196,6.7755 5.25815,6.70646 5.23314,6.45677 C5.18116,5.9362 5.14642,5.0981 5.13154,4.98624 C5.06732,4.50649 5.05021,4.10069 5.0893,3.69926 C5.15523,3.02311 5.47556,2.31183 5.9654,1.92299 C6.93954,1.14929 8.34219,0.55636 9.62574,0.24598 C10.11519,0.1275 10.86942,0.0171 11.5768,0.00279 C12.17639,-0.00914 13.31267,-0.0147 13.51456,0.69697 C13.66314,1.22086 14.72612,1.17487 15.09633,1.52302 Z" id="path-5"></path>
    <path d="M16.53407,1.66925 C17.04634,2.1512 17.42255,3.27865 17.42586,4.05445 C17.42788,4.4966 17.44993,4.93918 17.37974,5.46499 C17.3633,5.58759 17.32525,6.50617 17.26832,7.07672 C17.24093,7.35037 17.29152,7.42605 17.51249,7.50333 C17.76387,7.59149 17.85223,7.85237 17.76805,8.21681 C17.58903,8.99318 17.36186,10.85096 17.07085,11.35136 C16.99431,11.48296 16.85017,11.58304 16.73154,11.60875 C16.526,11.6882 16.39454,11.67963 16.31556,11.99933 C16.04457,13.15525 15.81597,14.17507 15.57252,14.92835 C15.41166,15.19169 15.29231,15.27681 15.10536,15.39737 C14.9739,15.48234 14.73362,15.70603 14.71474,15.86901 C14.66674,16.28719 14.79748,16.795138 15.23163,16.989777 C17.96984,17.945975 19.13793,19.286076 21.28013,19.754226 C22.73882,20.073055 23,23.640871 23,25 L0,25 C0,23.640871 0.261181,20.073055 1.719872,19.754226 C3.86207,19.286076 5.02987,17.945975 7.76823,16.989777 C8.20252,16.795138 8.33311,16.28719 8.28497,15.86901 C8.26638,15.70603 8.02595,15.48234 7.89435,15.39737 C7.70755,15.27681 7.5882,15.19169 7.4272,14.92835 C7.18403,14.17507 6.95514,13.15525 6.6843,11.99933 C6.60531,11.67963 6.47386,11.6882 6.26831,11.60875 C6.14969,11.58304 6.00555,11.48296 5.92915,11.35136 C5.63814,10.85096 5.41083,8.99318 5.23181,8.21681 C5.14763,7.85237 5.23599,7.59149 5.48722,7.50333 C5.70833,7.42605 5.75893,7.35037 5.73154,7.07672 C5.6746,6.50617 5.63655,5.58759 5.62026,5.46499 C5.54992,4.93918 5.53119,4.49442 5.57399,4.05445 C5.64621,3.31337 5.99704,2.5338 6.53353,2.10762 C7.60045,1.25964 9.13669,0.60978 10.54248,0.2696 C11.07854,0.13974 11.9046,0.01875 12.67935,0.00306 C13.33605,-0.01001 14.58055,-0.01611 14.80166,0.76389 C14.96439,1.33808 16.12861,1.28767 16.53407,1.66925 Z" id="path-7"></path>
  </defs>
  <g id="profile" stroke="none" stroke-width="1" fill="none" fill-rule="evenodd">
    <g id="Group-2">
      <mask id="mask-2" fill="white">
          <use xlink:href="#path-1"></use>
      </mask>
      <g id="Mask"></g>
      <g mask="url(#mask-2)">
        <g transform="translate(4.000000, 8.000000)">
          <g id="Group-3" stroke="none" stroke-width="1" fill-rule="evenodd" transform="translate(0.000000, 1.000000)">
            <mask id="mask-4" fill="white">
              <use xlink:href="#path-3"></use>
            </mask>
            <g id="Clip-2"></g>
            <polygon id="Fill-1" fill="#FFFFFF" mask="url(#mask-4)" points="-5 28 26 28 26 -5 -5 -5"></polygon>
          </g>
          <path d="M15.09633,2.52302 C15.56405,2.962748 15.90754,3.991431 15.91057,4.699263 C15.91241,5.102679 15.93255,5.506492 15.86846,5.986243 C15.85345,6.098097 15.81871,6.936204 15.76672,7.456774 C15.74172,7.706457 15.78791,7.775504 15.98966,7.846009 C16.21918,7.926454 16.29986,8.164474 16.223,8.496987 C16.05955,9.20535 15.85214,10.900383 15.58642,11.35694 C15.51654,11.47701 15.38494,11.56832 15.27662,11.59178 C15.08896,11.66428 14.96893,11.65646 14.89681,11.94815 C14.64939,13.00281 14.44067,13.93329 14.21838,14.62058 C14.07151,14.86085 13.96254,14.93851 13.79185,15.04851 C13.67183,15.12604 13.45244,15.33013 13.4352,15.47883 C13.39137,15.86038 13.51074,16.32383 13.90714,16.50142 C16.40725,17.37385 17.47376,18.59655 19.42968,19.02369 C20.76153,19.31459 21,22.75994 21,24 L0,24 C0,22.75994 0.2384693,19.31459 1.570318,19.02369 C3.52624,18.59655 4.592488,17.37385 7.092731,16.50142 C7.489259,16.32383 7.608494,15.86038 7.564537,15.47883 C7.54756,15.33013 7.328042,15.12604 7.207886,15.04851 C7.037325,14.93851 6.928356,14.86085 6.781353,14.62058 C6.559334,13.93329 6.350344,13.00281 6.103057,11.94815 C6.030937,11.65646 5.910913,11.66428 5.723244,11.59178 C5.614932,11.56832 5.483327,11.47701 5.413576,11.35694 C5.147864,10.900383 4.940322,9.20535 4.776868,8.496987 C4.70001,8.164474 4.780684,7.926454 5.010073,7.846009 C5.211956,7.775504 5.258149,7.706457 5.233144,7.456774 C5.18116,6.936204 5.146416,6.098097 5.131545,5.986243 C5.067321,5.506492 5.050213,5.100691 5.089299,4.699263 C5.155234,4.023105 5.475562,3.311827 5.965398,2.92299 C6.939542,2.149291 8.342195,1.5563606 9.625744,1.2459799 C10.11519,1.1274998 10.86942,1.01710395 11.5768,1.00279092 C12.17639,0.990863393 13.31267,0.98529721 13.51456,1.6969728 C13.66314,2.220856 14.72612,2.174869 15.09633,2.52302 Z" id="Stroke-4" stroke="#000000" stroke-width="0.567"></path>
          <g id="Group-8" stroke="none" stroke-width="1" fill-rule="evenodd" transform="translate(15.000000, 0.000000)">
            <mask id="mask-6" fill="white">
              <use xlink:href="#path-5"></use>
            </mask>
            <g id="Clip-7"></g>
            <polygon id="Fill-6" fill="#FFFFFF" mask="url(#mask-6)" points="-5 28 26 28 26 -5 -5 -5"></polygon>
          </g>
          <path d="M30.09633,1.52302 C30.56405,1.962748 30.90754,2.991431 30.91057,3.699263 C30.91241,4.102679 30.93255,4.506492 30.86846,4.986243 C30.85345,5.098097 30.81871,5.936204 30.76672,6.456774 C30.74172,6.706457 30.78791,6.775504 30.98966,6.846009 C31.21918,6.926454 31.29986,7.164474 31.223,7.496987 C31.05955,8.20535 30.85214,9.900383 30.58642,10.35694 C30.51654,10.47701 30.38494,10.56832 30.27662,10.59178 C30.08896,10.66428 29.96893,10.65646 29.89681,10.94815 C29.64939,12.00281 29.44067,12.93329 29.21838,13.62058 C29.07151,13.86085 28.96254,13.93851 28.79185,14.04851 C28.67183,14.12604 28.45244,14.33013 28.4352,14.47883 C28.39137,14.86038 28.51074,15.32383 28.90714,15.50142 C31.40725,16.37385 32.47376,17.59655 34.42968,18.02369 C35.76153,18.31459 36,21.75994 36,23 L15,23 C15,21.75994 15.2384693,18.31459 16.570318,18.02369 C18.52624,17.59655 19.592488,16.37385 22.092731,15.50142 C22.489259,15.32383 22.608494,14.86038 22.564537,14.47883 C22.54756,14.33013 22.328042,14.12604 22.207886,14.04851 C22.037325,13.93851 21.928356,13.86085 21.781353,13.62058 C21.559334,12.93329 21.350344,12.00281 21.103057,10.94815 C21.030937,10.65646 20.910913,10.66428 20.723244,10.59178 C20.614932,10.56832 20.483327,10.47701 20.413576,10.35694 C20.147864,9.900383 19.940322,8.20535 19.776868,7.496987 C19.70001,7.164474 19.780684,6.926454 20.010073,6.846009 C20.211956,6.775504 20.258149,6.706457 20.233144,6.456774 C20.18116,5.936204 20.146416,5.098097 20.131545,4.986243 C20.067321,4.506492 20.050213,4.100691 20.089299,3.699263 C20.155234,3.023105 20.475562,2.311827 20.965398,1.92299 C21.939542,1.149291 23.342195,0.5563606 24.625744,0.2459799 C25.11519,0.1274998 25.86942,0.0171039502 26.5768,0.00279091721 C27.17639,-0.00913660679 28.31267,-0.0147027898 28.51456,0.6969728 C28.66314,1.220856 29.72612,1.174869 30.09633,1.52302 Z" id="Stroke-9" stroke="#000000" stroke-width="0.567"></path>
          <g id="Group-13" stroke="none" stroke-width="1" fill-rule="evenodd" transform="translate(6.000000, 3.000000)">
            <mask id="mask-8" fill="white">
              <use xlink:href="#path-7"></use>
            </mask>
            <g id="Clip-12"></g>
            <polygon id="Fill-11" fill="#FFFFFF" mask="url(#mask-8)" points="-5 30 28 30 28 -5 -5 -5"></polygon>
          </g>
          <path d="M22.53407,4.669252 C23.04634,5.151201 23.42255,6.278652 23.42586,7.054446 C23.42788,7.496595 23.44993,7.93918 23.37974,8.464995 C23.3633,8.587588 23.32525,9.506166 23.26832,10.076718 C23.24093,10.350374 23.29152,10.426051 23.51249,10.503325 C23.76387,10.591494 23.85223,10.852368 23.76805,11.216807 C23.58903,11.993182 23.36186,13.85096 23.07085,14.35136 C22.99431,14.48296 22.85017,14.58304 22.73154,14.60875 C22.526,14.6882 22.39454,14.67963 22.31556,14.99933 C22.04457,16.15525 21.81597,17.17507 21.57252,17.92835 C21.41166,18.19169 21.29231,18.27681 21.10536,18.39737 C20.9739,18.48234 20.73362,18.70603 20.71474,18.86901 C20.66674,19.28719 20.79748,19.79514 21.23163,19.98978 C23.96984,20.94598 25.13793,22.28608 27.28013,22.75423 C28.73882,23.07306 29,26.64087 29,28 L6,28 C6,26.64087 6.2611807,23.07306 7.719872,22.75423 C9.862073,22.28608 11.029868,20.94598 13.76823,19.98978 C14.202522,19.79514 14.333112,19.28719 14.284969,18.86901 C14.266375,18.70603 14.025951,18.48234 13.894352,18.39737 C13.707547,18.27681 13.588199,18.19169 13.427196,17.92835 C13.184032,17.17507 12.955139,16.15525 12.684301,14.99933 C12.605312,14.67963 12.473857,14.6882 12.268314,14.60875 C12.149688,14.58304 12.005548,14.48296 11.929154,14.35136 C11.638137,13.85096 11.410829,11.993182 11.231808,11.216807 C11.14763,10.852368 11.235988,10.591494 11.487223,10.503325 C11.708333,10.426051 11.758926,10.350374 11.731539,10.076718 C11.674604,9.506166 11.636551,8.587588 11.620263,8.464995 C11.549923,7.93918 11.531185,7.494417 11.573995,7.054446 C11.646209,6.313367 11.997044,5.533796 12.533531,5.107625 C13.600451,4.25964 15.13669,3.6097793 16.54248,3.2695975 C17.07854,3.1397416 17.9046,3.01874617 18.67935,3.00305889 C19.33605,2.98998615 20.58055,2.98388553 20.80166,3.7638923 C20.96439,4.338076 22.12861,4.287673 22.53407,4.669252 Z" id="Stroke-14" stroke="#000000" stroke-width="0.63"></path>
        </g>
      </g>
    </g>
  </g>
</svg>