<?xml version="1.0" encoding="UTF-8"?>
<svg width="25px" height="25px" viewBox="0 0 25 25" version="1.1" xmlns="http://www.w3.org/2000/svg" xmlns:xlink="http://www.w3.org/1999/xlink">
  <!-- Generator: Sketch 53.2 (72643) - https://sketchapp.com -->
  <title>refund</title>
  <desc>Created with Sketch.</desc>
  <defs>
    <rect id="path-1" x="0" y="0" width="25" height="25"></rect>
  </defs>
  <g id="refund" stroke="none" stroke-width="1" fill="none" fill-rule="evenodd">
    <g>
      <mask id="mask-2" fill="white">
        <use xlink:href="#path-1"></use>
      </mask>
      <g id="Mask"></g>
      <g mask="url(#mask-2)" stroke="#3266CC">
        <g transform="translate(2.500000, 2.500000)">
          <path d="M13.7836563,7.70145919 L12.0975629,7.70145919 C12.0013095,6.77211633 11.5001282,5.90915511 10.7666111,5.37810204 L13.7836563,5.37810204 C13.9662058,5.37810204 14.1155645,5.22874337 14.1155645,5.04619388 C14.1155645,4.86364439 13.9662058,4.71428571 13.7836563,4.71428571 L6.76047959,4.71428571 C6.5779301,4.71428571 6.42857143,4.86364439 6.42857143,5.04619388 C6.42857143,5.22874337 6.5779301,5.37810204 6.76047959,5.37810204 L8.77184307,5.37810204 C10.1393047,5.37810204 11.2677925,6.40701735 11.4304275,7.70145919 L6.76047959,7.70145919 C6.5779301,7.70145919 6.42857143,7.85081787 6.42857143,8.03336736 C6.42857143,8.21591685 6.5779301,8.36527552 6.76047959,8.36527552 L11.4304275,8.36527552 C11.2644734,9.70950358 10.1227093,10.7185044 8.77184307,10.7218235 L6.76379867,10.7218235 C6.5779301,10.7251426 6.42857143,10.8778203 6.43189051,11.0636889 C6.43189051,11.1533041 6.47171949,11.2396002 6.53478204,11.3026628 L11.5565526,16.0522686 C11.6893158,16.1783937 11.898418,16.1717555 12.0245431,16.0389923 C12.1506682,15.9029099 12.14403,15.6938078 12.0112667,15.5643636 L7.59356908,11.3856398 L8.76852399,11.3856398 C10.5010846,11.3856398 11.9316088,10.0580072 12.0975629,8.36527552 L13.7836563,8.36527552 C13.9662058,8.36527552 14.1155645,8.21591685 14.1155645,8.03336736 C14.1155645,7.85081787 13.9662058,7.70145919 13.7836563,7.70145919 Z" id="Path" stroke-width="0.3" fill="#3366CC" fill-rule="evenodd"></path>
          <circle id="Oval" stroke-width="1" fill="none" cx="10" cy="10" r="9.5"></circle>
        </g>
      </g>
    </g>
  </g>
</svg>