<?xml version="1.0" encoding="UTF-8"?>
<svg width="44px" height="44px" viewBox="0 0 44 44" version="1.1" xmlns="http://www.w3.org/2000/svg" xmlns:xlink="http://www.w3.org/1999/xlink">
  <!-- Generator: Sketch 53.2 (72643) - https://sketchapp.com -->
  <title>support</title>
  <desc>Created with Sketch.</desc>
  <defs>
    <rect id="path-1" x="0" y="0" width="44" height="44"></rect>
    <path d="M0.857143,0.73842 L31.12699,0.73842 L31.12699,33.289214 L0.857143,33.289214 L0.857143,0.73842 Z M21.02857,14.82857 C20.62857,12.82857 19.02857,11.22857 17.02857,10.82857 C13.83257,10.23657 10.85714,12.63371 10.85714,15.85714 C10.85714,16.62286 12,16.624 12,15.85714 C12,13.17257 14.54629,11.53086 16.85714,11.97143 C18.4,12.25714 19.65714,13.51429 19.94286,15.05714 C20.34229,17.17143 19.08571,19.17143 17.08571,19.74286 C16.11429,19.972 15.42857,20.88571 15.42857,21.91429 L15.42857,22.71429 C15.42857,23.48114 16.57143,23.48057 16.57143,22.71429 L16.57143,21.91429 C16.57143,21.4 16.91429,20.94286 17.372,20.82857 C20,20.08571 21.54286,17.51429 21.02857,14.82857 Z" id="path-3"></path>
    <path d="M0.857143,0.57143 L23.14286,0.57143 L23.14286,22.857143 L0.857143,22.857143 L0.857143,0.57143 Z M13.14286,11.714286 C13.14286,11.085714 12.62857,10.57143 12,10.57143 C11.37143,10.57143 10.85714,11.085714 10.85714,11.714286 C10.85714,12.342857 11.37143,12.857143 12,12.857143 C12.62857,12.857143 13.14286,12.342857 13.14286,11.714286 Z" id="path-5"></path>
    <path d="M0,0 L52,0 L52,52 L0,52 L0,0 Z M26,10 C17.2,10 10,17.2 10,26 C10,34.8 17.2,42 26,42 C34.8,42 42,34.8 42,26 C42,17.2 34.8,10 26,10 Z" id="path-7"></path>
  </defs>
  <g id="support" stroke="none" stroke-width="1" fill="none" fill-rule="evenodd">
    <g id="Group-4">
      <mask id="mask-2" fill="white">
        <use xlink:href="#path-1"></use>
      </mask>
      <g id="Mask"></g>
      <g mask="url(#mask-2)">
        <g transform="translate(-4.000000, -4.000000)">
          <g id="Group-3" stroke="none" stroke-width="1" fill="none" fill-rule="evenodd" transform="translate(10.000000, 7.000000)">
            <mask id="mask-4" fill="white">
              <use xlink:href="#path-3"></use>
            </mask>
            <g id="Clip-2"></g>
            <path d="M21.02857,14.828576 C21.54285,17.51429 19.999997,20.085719 17.371997,20.82858 C16.914283,20.94286 16.571426,21.4 16.571426,21.91429 L16.571426,22.71429 C16.571426,23.48058 15.428569,23.48115 15.428569,22.71429 L15.428569,21.91429 C15.428569,20.88572 16.114283,19.972005 17.085711,19.742862 C19.085711,19.171433 20.342283,17.171433 19.942854,15.057148 C19.65714,13.51429 18.399997,12.257148 16.85714,11.971433 C14.546283,11.5308619 11.999997,13.172576 11.999997,15.857148 C11.999997,16.624005 10.85714,16.622862 10.85714,15.857148 C10.85714,12.633719 13.832569,10.2365761 17.028569,10.8285761 C19.028569,11.2285761 20.628569,12.828576 21.02857,14.828576 Z" id="Stroke-1" stroke="#212329" stroke-width="1.2" mask="url(#mask-4)"></path>
          </g>
          <g id="Group-6" stroke="none" stroke-width="1" fill="none" fill-rule="evenodd" transform="translate(14.000000, 22.000000)">
            <mask id="mask-6" fill="white">
              <use xlink:href="#path-5"></use>
            </mask>
            <g id="Clip-5"></g>
            <path d="M13.142854,11.714287 C13.142854,12.342859 12.628569,12.857144 11.999997,12.857144 C11.3714257,12.857144 10.85714,12.342859 10.85714,11.714287 C10.85714,11.0857157 11.3714257,10.57143 11.999997,10.57143 C12.628569,10.57143 13.142854,11.0857157 13.142854,11.714287 Z" id="Stroke-4" stroke="#212329" stroke-width="1.2" mask="url(#mask-6)"></path>
          </g>
          <mask id="mask-8" fill="white">
            <use xlink:href="#path-7"></use>
          </mask>
          <g id="Clip-8" stroke="none" fill="none"></g>
          <path d="M26,10 C17.2,10 10,17.2 10,26 C10,34.8 17.2,42 26,42 C34.8,42 42,34.8 42,26 C42,17.2 34.8,10 26,10 Z" id="Stroke-7" stroke="#212329" stroke-width="1.2" fill="none" mask="url(#mask-8)"></path>
        </g>
      </g>
    </g>
  </g>
</svg>