<?xml version="1.0" encoding="UTF-8"?>
<svg width="44px" height="44px" viewBox="0 0 44 44" version="1.1" xmlns="http://www.w3.org/2000/svg" xmlns:xlink="http://www.w3.org/1999/xlink">
  <!-- Generator: Sketch 53.2 (72643) - https://sketchapp.com -->
  <title>wallet</title>
  <desc>Created with Sketch.</desc>
  <defs>
    <rect id="path-1" x="0" y="0" width="44" height="44"></rect>
    <path d="M1.0658141e-14,-1.42108547e-14 L51.5846,-1.42108547e-14 L51.5846,43.4 L1.0658141e-14,43.4 L1.0658141e-14,-1.42108547e-14 Z M33.79592,20.14807 C32.07681,20.14807 30.67925,21.55325 30.67925,23.28093 C30.67925,25.009352 32.07681,26.414532 33.79592,26.414532 L40.02627,26.414532 C40.88694,26.414532 41.5846,25.712313 41.5846,24.847359 L41.5846,21.7145 C41.5846,20.84954 40.88694,20.14807 40.02627,20.14807 L33.79592,20.14807 Z M33.74158,19.4866 L38.93042,19.4866 L38.93042,15.6916 C38.93042,14.2948 37.80438,13.1626 36.41509,13.1626 L13.144453,13.1626 C12.797283,13.1626 12.797283,12.4972 13.144453,12.4972 L36.41509,12.4972 C36.49587,11.23434 35.57017,10 33.89977,10 L12.515321,10 C11.126642,10 10.006038,11.1328 10.006038,12.5296 L10,30.8698 C10,32.2672 11.126642,33.4 12.515321,33.4 L36.41509,33.4 C37.80438,33.4 38.93042,32.2672 38.93042,30.8698 L38.93042,27.0754 L33.74158,27.0754 C31.65796,27.0754 29.968,25.3768 29.968,23.281 C29.968,21.1858 31.65796,19.4866 33.74158,19.4866 Z" id="path-3"></path>
    <path d="M10.62027,0.75983 L14.42628,6.0337 C14.71716,6.43676 14.62621,6.99931 14.22316,7.29018 C14.07011,7.40064 13.88621,7.46018 13.69747,7.46038 L1.426489,7.47384 C0.929433,7.47439 0.526048,7.07189 0.525502,6.57483 C0.525161,6.26408 0.685153,5.97514 0.948715,5.81051 L9.41368,0.52318 C9.81547,0.27221 10.34304,0.37568 10.62027,0.75983 Z" id="path-5"></path>
    <path d="M10.86353,0.58427 L14.66955,5.85815 C15.05738,6.39556 14.93613,7.14562 14.39872,7.53345 C14.19465,7.68072 13.94945,7.76011 13.69779,7.76038 L1.426818,7.77384 C0.764077,7.77457 0.22623,7.2379 0.225503,6.57516 C0.225048,6.16083 0.43837,5.77557 0.789786,5.55607 L9.25475,0.26874 C9.79048,-0.06589 10.49389,0.07207 10.86353,0.58427 Z" id="path-7"></path>
    <path d="M9.88138,1.27829 L13.21861,5.90258 C13.50948,6.30564 13.41854,6.86819 13.01548,7.15906 C12.86244,7.26951 12.67854,7.32905 12.48979,7.32926 L1.73022,7.34106 C1.23317,7.34161 0.82978,6.93911 0.82924,6.44205 C0.82889,6.1313 0.98889,5.84236 1.25245,5.67773 L8.67479,1.04164 C9.07659,0.79067 9.60415,0.89414 9.88138,1.27829 Z" id="path-9"></path>
    <path d="M10.12464,1.10273 L13.46187,5.72702 C13.84971,6.26443 13.72845,7.01449 13.19104,7.40233 C12.98698,7.5496 12.74178,7.62898 12.49012,7.62926 L1.73055,7.64106 C1.06781,7.64179 0.52996,7.10512 0.52924,6.44238 C0.52878,6.02805 0.7421,5.64279 1.09352,5.42329 L8.51586,0.78719 C9.05159,0.45257 9.755,0.59053 10.12464,1.10273 Z" id="path-11"></path>
  </defs>
  <g id="wallet" stroke="none" stroke-width="1" fill="none" fill-rule="evenodd">
    <g id="Group-7">
      <mask id="mask-2" fill="white">
        <use xlink:href="#path-1"></use>
      </mask>
      <g id="Mask"></g>
      <g mask="url(#mask-2)">
        <g transform="translate(-3.000000, 1.000000)">
          <mask id="mask-4" fill="white">
            <use xlink:href="#path-3"></use>
          </mask>
          <g id="Clip-5" stroke="none" fill="none"></g>
          <path d="M33.79592,20.14807 C32.07681,20.14807 30.67925,21.55325 30.67925,23.28093 C30.67925,25.00935 32.07681,26.41453 33.79592,26.41453 L40.02627,26.41453 C40.88694,26.41453 41.5846,25.71231 41.5846,24.84736 L41.5846,21.7145 C41.5846,20.84954 40.88694,20.14807 40.02627,20.14807 L33.79592,20.14807 Z M33.74158,19.4866 L38.93042,19.4866 L38.93042,15.6916 C38.93042,14.2948 37.80438,13.1626 36.41509,13.1626 L13.144453,13.1626 C12.797283,13.1626 12.797283,12.4972 13.144453,12.4972 L36.41509,12.4972 C36.49587,11.234337 35.57017,10 33.89977,10 L12.515321,10 C11.126642,10 10.0060377,11.1328 10.0060377,12.5296 L10,30.8698 C10,32.2672 11.126642,33.4 12.515321,33.4 L36.41509,33.4 C37.80438,33.4 38.93042,32.2672 38.93042,30.8698 L38.93042,27.0754 L33.74158,27.0754 C31.65796,27.0754 29.968,25.3768 29.968,23.281 C29.968,21.1858 31.65796,19.4866 33.74158,19.4866 Z" id="Stroke-4" stroke="#000000" stroke-width="1.2" fill="none" mask="url(#mask-4)"></path>
          <g id="Group-9" stroke="none" stroke-width="1" fill="none" fill-rule="evenodd" mask="url(#mask-4)">
            <g transform="translate(17.000000, 5.400060)">
              <mask id="mask-6" fill="white">
                <use xlink:href="#path-5"></use>
              </mask>
              <g id="Clip-8" stroke="none" fill="none"></g>
              <path d="M10.86353,0.58427 L14.66955,5.85815 C15.05738,6.39556 14.93613,7.14562 14.39872,7.53345 C14.19465,7.68072 13.94945,7.76011 13.69779,7.76038 L1.426818,7.77384 C0.764077,7.77457 0.22623,7.2379 0.225503,6.57516 C0.225048,6.16083 0.43837,5.77557 0.789786,5.55607 L9.25475,0.26874 C9.79048,-0.06589 10.49389,0.07207 10.86353,0.58427 Z" id="Fill-7" stroke="none" fill="#FFFFFF" fill-rule="evenodd" mask="url(#mask-6)"></path>
            </g>
          </g>
          <g id="Group-12" stroke="none" stroke-width="1" fill="none" fill-rule="evenodd" mask="url(#mask-4)">
            <g transform="translate(17.000000, 5.400060)">
              <mask id="mask-8" fill="white">
                <use xlink:href="#path-7"></use>
              </mask>
              <g id="Clip-11" stroke="none" fill="none"></g>
              <path d="M10.8635337,0.584274799 L14.6695506,5.85815125 C15.0573803,6.39555666 14.9361306,7.14562232 14.3987174,7.53345413 C14.1946527,7.68072397 13.9494514,7.76010873 13.6977971,7.76038662 L1.42681841,7.7738457 C0.764079022,7.77457048 0.226227427,7.23790682 0.225504057,6.57516178 C0.225051155,6.16082513 0.438366397,5.77557447 0.789783769,5.55607381 L9.25474892,0.268737723 C9.79047849,-0.0658864281 10.4938942,0.0720771796 10.8635337,0.584274799 Z" id="Stroke-10" stroke="#000000" stroke-width="1.2" fill="none" mask="url(#mask-8)"></path>
            </g>
          </g>
          <g id="Group-15" stroke="none" stroke-width="1" fill="none" fill-rule="evenodd" mask="url(#mask-4)">
            <g transform="translate(20.000000, 5.400060)">
              <mask id="mask-10" fill="white">
                <use xlink:href="#path-9"></use>
              </mask>
              <g id="Clip-14" stroke="none" fill="none"></g>
              <path d="M10.12464,1.10273 L13.46187,5.72702 C13.84971,6.26443 13.72845,7.01449 13.19104,7.40233 C12.98698,7.5496 12.74178,7.62898 12.49012,7.62926 L1.73055,7.64106 C1.06781,7.64179 0.52996,7.10512 0.52924,6.44238 C0.52878,6.02805 0.7421,5.64279 1.09352,5.42329 L8.51586,0.78719 C9.05159,0.45257 9.755,0.59053 10.12464,1.10273 Z" id="Fill-13" stroke="none" fill="#FFFFFF" fill-rule="evenodd" mask="url(#mask-10)"></path>
            </g>
          </g>
          <g id="Group-18" stroke="none" stroke-width="1" fill="none" fill-rule="evenodd" mask="url(#mask-4)">
            <g transform="translate(20.000000, 5.400060)">
              <mask id="mask-12" fill="white">
                <use xlink:href="#path-11"></use>
              </mask>
              <g id="Clip-17" stroke="none" fill="none"></g>
              <path d="M10.124642,1.10272585 L13.461873,5.72702105 C13.849711,6.26443509 13.7284542,7.01449368 13.191041,7.4023255 C12.9869764,7.54959534 12.7417751,7.6289801 12.4901207,7.62925799 L1.73054675,7.64106172 C1.06780736,7.64178651 0.529962837,7.10511578 0.529232396,6.44237781 C0.528779777,6.02804144 0.742099969,5.64278582 1.09351593,5.42328658 L8.51585719,0.787188788 C9.05158676,0.452564637 9.7550025,0.590528202 10.124642,1.10272585 Z" id="Stroke-16" stroke="#000000" stroke-width="1.2" fill="none" mask="url(#mask-12)"></path>
            </g>
          </g>
        </g>
      </g>
    </g>
  </g>
</svg>